<svg xmlns="http://www.w3.org/2000/svg" width="90" height="29"><g fill="#222"><path d="M70.903 28.733c-.737-.265-.778-.377-.258-.955.694-.772 1.454-1.485 2.107-2.292.85-1.061 1.616-2.193 2.43-3.283a.945.945 0 00.15-.914 64.82 64.82 0 00-.57-1.732c-.682-1.992-1.148-4.037-1.472-6.118-.125-.807-.257-1.615-.113-2.428.102-.584.24-1.155.61-1.639.252-.324.569-.536.982-.548 1.035-.03 2.07-.082 3.094.165l.09.018c.502.13.526.147.31.601-.46.979-.466 2.004-.34 3.03.15 1.225.34 2.445.526 3.665.036.248.12.501.234.725.15.3.395.342.616.089.36-.419.7-.855 1.012-1.309 1.209-1.738 2.411-3.489 3.608-5.233.324-.472.605-.967.755-1.527.101-.377.197-.424.586-.347a3.562 3.562 0 011.772.925c.299.277.329.454.107.807-.455.713-.91 1.432-1.394 2.128-1.64 2.375-3.483 4.591-5.464 6.695-.42.442-.497.86-.3 1.438.431 1.25 1.018 2.405 1.868 3.43.766.926 1.82 1.067 2.807.36.742-.53 1.28-1.25 1.675-2.045.73-1.491 1.4-3.012 2.101-4.52.018-.048.042-.09.06-.136.275-.637.706-.72 1.203-.218.113.118.203.259.305.395v.353c-.018.024-.042.041-.054.065-.317.908-.61 1.827-.963 2.723-.754 1.927-1.844 3.654-3.364 5.092-1.077 1.026-3.184 1.692-4.854.855-1.017-.513-1.992-1.085-2.788-1.898-.42-.43-.802-.902-1.21-1.344-.227-.247-.364-.26-.604-.023-.24.235-.449.495-.67.748-.964 1.114-1.915 2.234-2.89 3.336-.372.418-.809.784-1.401.878-.102-.012-.198-.012-.3-.012zm-49.674-9.73c-.077 1.106-.214 2.206.03 3.294.107.487.006.875-.209 1.286-.589 1.135-1.237 2.223-2.196 3.103-.69.632-1.475 1.031-2.463.933-1.434-.14-2.553-.81-3.464-1.87-1.28-1.489-1.696-3.226-1.654-5.12.036-1.435.31-2.836.595-4.232.387-1.887.791-3.775 1.184-5.657.048-.226.078-.457.083-.689 0-.098-.065-.266-.13-.283-.102-.024-.274.023-.334.098-.273.376-.547.758-.767 1.164-1.702 3.069-2.976 6.317-4.25 9.571a89.557 89.557 0 00-2.338 6.7c-.084.271-.268.364-.518.381-.518.04-.982-.127-1.41-.382-1.226-.735-2.184-1.748-2.976-2.906a2.32 2.32 0 01-.41-1.402c.03-1.06.077-2.119.154-3.173.078-1.03.19-2.055.31-3.08A76.76 76.76 0 011.62 9.576c.387-1.852.827-3.688 1.47-5.471.155-.429.351-.84.536-1.251.166-.37.5-.55.88-.521.53.04 1.066.116 1.566.272.952.295 1.803.793 2.594 1.384.429.318.447.382.268.88-.5 1.36-1.089 2.698-1.482 4.088-.541 1.922-.964 3.874-1.38 5.825-.298 1.384-.512 2.785-.75 4.18-.06.37-.084.747-.078 1.124 0 .139.131.278.203.417.125-.087.31-.151.363-.273.428-.943.839-1.893 1.25-2.843.922-2.165 1.773-4.354 2.767-6.485a46.639 46.639 0 014.23-7.33c.173-.243.37-.48.572-.706.399-.44.91-.568 1.482-.458a8.74 8.74 0 013.136 1.262c.107.07.209.151.298.238.446.4.535.81.31 1.355-.542 1.291-1.131 2.57-1.614 3.885a33.689 33.689 0 00-1.892 8.361c-.119 1.262-.155 2.536-.16 3.81 0 .567.136 1.146.261 1.708.054.255.197.51.345.73.4.584 1.06.677 1.524.15a12.4 12.4 0 001.369-1.91c.565-.98 1.03-1.992 1.54-2.994zm28.03-6.556c.44.217.87.421 1.333.65-.18.603-.371 1.252-.568 1.901-.678 2.255-1.356 4.504-2.324 6.662-.655 1.458-1.45 2.83-2.614 3.963-.783.769-1.687 1.315-2.805 1.48-2.295.336-4.422-.842-5.286-2.95-.475-1.155-.498-2.373-.388-3.586a56.86 56.86 0 011.524-8.928c.017-.063.023-.126.035-.194-.36-.125-.707-.222-1.043-.364a3.263 3.263 0 01-.696-.399c-.33-.256-.272-.598.133-.729.29-.09.603-.114.904-.16.151-.022.308-.033.458-.062.313-.057.528-.222.626-.524.29-.922.568-1.845.864-2.767.342-1.065.695-2.13 1.043-3.189.04-.12.087-.233.14-.341.445-.991.915-1.276 1.981-1.02.846.206 1.658.547 2.48.838.134.045.256.142.366.227.481.365.562.775.267 1.293a6.498 6.498 0 01-.337.53c-.828 1.138-1.379 2.408-1.86 3.712-.023.062-.04.125-.058.193-.081.325.058.484.394.416.33-.063.655-.148.985-.239 1.35-.37 2.012.41 2.214 1.4a2.23 2.23 0 01-.156 1.396c-.104.233-.25.301-.528.216a5.005 5.005 0 00-1.13-.194 18.774 18.774 0 00-1.79-.045c-.569.011-.679.176-.818.712-.684 2.585-1.31 5.181-1.576 7.846-.105 1.048-.14 2.101.098 3.143.053.222.116.444.215.65.405.882 1.153 1.212 2.063.819.585-.25 1.009-.689 1.397-1.173.776-.974 1.298-2.084 1.79-3.206.934-2.146 1.577-4.39 2.261-6.622.145-.484.278-.94.406-1.355zm-13.046 6.737c0 .823 0 1.716-.012 2.608 0 .126-.03.268-.095.377-1.6 2.493-3.725 4.346-6.819 4.867-2.005.337-3.91.017-5.522-1.316-1.005-.835-1.493-1.932-1.72-3.15-.511-2.751-.059-5.399.982-7.978.613-1.533 1.452-2.934 2.583-4.18 1.243-1.367 2.826-1.853 4.659-1.722.91.063 1.79.24 2.606.635 1.892.91 2.672 2.848 1.987 4.884-.458 1.372-1.362 2.442-2.493 3.345-1.386 1.098-2.951 1.922-4.623 2.55-.363.138-.762.19-1.137.298-.083.023-.202.132-.208.212-.047.84-.006 1.675.31 2.476.493 1.258 1.451 1.795 2.85 1.715.97-.051 1.797-.423 2.552-.972 1.315-.955 2.32-2.173 3.255-3.46l.845-1.189zm-4.064-7.863c-.327.114-.678.2-.982.354-.624.326-1.077.835-1.463 1.396-1.06 1.515-1.887 3.145-2.636 4.815-.048.103-.072.217-.102.326-.07.286.042.394.346.326.095-.023.19-.052.285-.086a10.754 10.754 0 004.284-2.636c.845-.847 1.428-1.819 1.619-2.991.125-.84-.429-1.441-1.35-1.504z"/><path d="M61.57 20.443c.036.838.065 1.629.095 2.42 0 .046 0 .099.017.145.224.57.012 1.036-.3 1.513-.59.884-1.167 1.757-2.074 2.385-2.757 1.903-6.751.146-7.193-3.229-.212-1.658-.024-3.275.507-4.84.683-2.007 1.437-3.99 2.162-5.986.03-.087.065-.175.1-.285-.536.087-1.031.186-1.538.244-1.066.122-2.109.122-3.093-.425-.9-.5-1.307-1.233-1.254-2.251.04-.774.224-1.513.506-2.228.206-.512.46-1.007.666-1.519.271-.674.766-.942 1.479-.878.907.076 1.785.256 2.539.803.118.087.23.186.324.29.306.326.282.716.03 1.083-.396.576-.749 1.175-1.114 1.774-.053.087-.077.198-.106.303-.165.564.053.86.642.82.265-.018.536-.099.783-.204.413-.174.802-.401 1.214-.587.312-.14.636-.18.978-.082 1.084.303 2.062.803 2.863 1.594.082.082.159.169.23.262.394.518.383.64.04 1.193a22.721 22.721 0 00-2.72 6.405c-.307 1.193-.62 2.385-.655 3.618-.011.553.053 1.13.212 1.659.283.919.99 1.128 1.785.57.73-.518 1.273-1.216 1.691-1.99.389-.727.695-1.495 1.037-2.246.059-.116.094-.209.147-.331zm8.133-8.962c-.94 1.582-1.62 3.206-1.965 4.972-.363 1.862-.772 3.712-1.06 5.585-.133.869-.07 1.779-.024 2.659.023.505.237.987.79 1.124.518.125.887-.202 1.124-.607a58.035 58.035 0 001.532-2.819c1.182-2.32 2.08-4.758 2.818-7.262.012-.042.035-.083.058-.13.144.76.242 1.51.438 2.236.115.434.11.79-.07 1.207-.852 1.998-1.648 4.032-2.518 6.025-.345.79-.778 1.552-1.267 2.254-.991 1.422-2.058 1.766-3.694 1.29-1.925-.558-2.968-1.95-3.365-3.895-.294-1.422-.202-2.849-.046-4.288.294-2.707 1.008-5.312 1.67-7.935a8.31 8.31 0 00.202-1.314c.052-.523.208-.791.715-.833.507-.041 1.037-.035 1.533.066.956.202 1.832.63 2.633 1.22.179.13.329.29.496.445zm3.788-9.389c-.515.577-1.003 1.136-1.502 1.69-.504.558-1.019 1.112-1.344 1.824-.152.336-.233.683-.163 1.054.044.218-.038.341-.206.36-.32.034-.661.117-.954.017a5.991 5.991 0 01-1.42-.689c-.721-.489-.932-1.254-.726-2.125a7.667 7.667 0 011.35-2.85c.476-.635 1.132-.694 1.805-.582.97.158 1.886.512 2.764.983.087.047.174.106.255.17.049.042.098.1.141.148z"/></g></svg>